<?xml version="1.0" encoding="UTF-8"?>
<svg width="100px" height="200px" viewBox="0 0 100 200" version="1.1" xmlns="http://www.w3.org/2000/svg">
    <title>Rocket Engine Flame</title>
    <defs>
        <radialGradient id="flameGradient" cx="50%" cy="30%" r="70%" fx="50%" fy="30%">
            <stop offset="0%" stop-color="#FFFFFF" />
            <stop offset="15%" stop-color="#A0DDFF" />
            <stop offset="30%" stop-color="#5CB3FF" />
            <stop offset="45%" stop-color="#FFDD00" />
            <stop offset="65%" stop-color="#FFA500" />
            <stop offset="85%" stop-color="#FF4500" />
            <stop offset="100%" stop-color="#880000" />
        </radialGradient>
    </defs>
    <g stroke="none" stroke-width="1" fill="none" fill-rule="evenodd">
        <!-- Main flame -->
        <path d="M10,0 C20,20 5,50 5,80 C5,120 20,150 50,200 C80,150 95,120 95,80 C95,50 80,20 90,0 C70,15 30,15 10,0 Z" fill="url(#flameGradient)">
            <animate attributeName="d" 
                     dur="0.5s" 
                     repeatCount="indefinite" 
                     values="M10,0 C20,20 5,50 5,80 C5,120 20,150 50,200 C80,150 95,120 95,80 C95,50 80,20 90,0 C70,15 30,15 10,0 Z;
                             M10,0 C15,20 10,50 10,80 C10,120 25,150 50,190 C75,150 90,120 90,80 C90,50 85,20 90,0 C70,20 30,20 10,0 Z;
                             M10,0 C20,20 5,50 5,80 C5,120 20,150 50,200 C80,150 95,120 95,80 C95,50 80,20 90,0 C70,15 30,15 10,0 Z" />
        </path>
        
        <!-- Inner flame -->
        <path d="M30,0 C35,20 25,50 25,70 C25,100 35,120 50,160 C65,120 75,100 75,70 C75,50 65,20 70,0 C60,10 40,10 30,0 Z" fill="#E0F7FF" opacity="0.9">
            <animate attributeName="d" 
                     dur="0.3s" 
                     repeatCount="indefinite" 
                     values="M30,0 C35,20 25,50 25,70 C25,100 35,120 50,160 C65,120 75,100 75,70 C75,50 65,20 70,0 C60,10 40,10 30,0 Z;
                             M30,0 C32,20 30,50 30,70 C30,100 40,120 50,150 C60,120 70,100 70,70 C70,50 68,20 70,0 C60,15 40,15 30,0 Z;
                             M30,0 C35,20 25,50 25,70 C25,100 35,120 50,160 C65,120 75,100 75,70 C75,50 65,20 70,0 C60,10 40,10 30,0 Z" />
        </path>
    </g>
</svg> 