<svg width="300" height="300" viewBox="0 0 300 300" xmlns="http://www.w3.org/2000/svg">
  <!-- Main landing pad circle - concrete-like color -->
  <circle cx="150" cy="150" r="145" fill="#2c2c2c" stroke="#444444" stroke-width="5"/>
  
  <!-- Outer ring - SpaceX uses simple markings -->
  <circle cx="150" cy="150" r="135" fill="none" stroke="#ffffff" stroke-width="6"/>
  
  <!-- Middle ring -->
  <circle cx="150" cy="150" r="90" fill="none" stroke="#ffffff" stroke-width="4"/>
  
  <!-- Center circle -->
  <circle cx="150" cy="150" r="40" fill="#2c2c2c" stroke="#ffffff" stroke-width="3"/>
  
  <!-- SpaceX logo-inspired X in the center -->
  <path d="M130,130 L170,170 M170,130 L130,170" stroke="#ffffff" stroke-width="8" stroke-linecap="round"/>
  
  <!-- Landing target crosshairs -->
  <line x1="150" y1="90" x2="150" y2="110" stroke="#ffffff" stroke-width="4"/>
  <line x1="150" y1="190" x2="150" y2="210" stroke="#ffffff" stroke-width="4"/>
  <line x1="90" y1="150" x2="110" y2="150" stroke="#ffffff" stroke-width="4"/>
  <line x1="190" y1="150" x2="210" y2="150" stroke="#ffffff" stroke-width="4"/>
  
  <!-- Landing lights (12 points around the outer circle) -->
  <circle cx="150" cy="15" r="6" fill="#ff3333"/>
  <circle cx="223" cy="40" r="6" fill="#ff3333"/>
  <circle cx="260" cy="90" r="6" fill="#ff3333"/>
  <circle cx="285" cy="150" r="6" fill="#ff3333"/>
  <circle cx="260" cy="210" r="6" fill="#ff3333"/>
  <circle cx="223" cy="260" r="6" fill="#ff3333"/>
  <circle cx="150" cy="285" r="6" fill="#ff3333"/>
  <circle cx="77" cy="260" r="6" fill="#ff3333"/>
  <circle cx="40" cy="210" r="6" fill="#ff3333"/>
  <circle cx="15" cy="150" r="6" fill="#ff3333"/>
  <circle cx="40" cy="90" r="6" fill="#ff3333"/>
  <circle cx="77" cy="40" r="6" fill="#ff3333"/>
</svg> 